<svg version="1.1" id="Layer_1" xmlns="http://www.w3.org/2000/svg" xmlns:xlink="http://www.w3.org/1999/xlink" x="0px" y="0px"
	 width="100%" viewBox="0 0 160 160" enable-background="new 0 0 160 160" xml:space="preserve">
<path fill="#2F3B47" opacity="1.000000" stroke="none" 
	d="
M161.000000,28.000000 
	C161.000000,68.687561 161.000000,109.375122 160.645981,150.541748 
	C157.861313,154.347214 155.430664,157.673599 153.000000,161.000000 
	C105.645775,161.000000 58.291542,161.000000 10.471498,160.652313 
	C5.891231,156.915207 2.991565,152.921738 2.995522,147.266983 
	C3.022441,108.794373 2.976591,70.321678 3.036450,31.849148 
	C3.048014,24.416286 8.587967,19.029202 15.902293,19.012238 
	C33.556068,18.971296 51.209930,18.966625 68.928009,19.296274 
	C67.768547,21.842279 66.544815,24.039339 64.915070,26.055988 
	C62.389793,25.574541 60.272442,25.029869 58.150948,25.013243 
	C46.997189,24.925827 35.832531,25.268007 24.690414,24.897343 
	C10.452932,24.423700 10.012635,27.125389 10.370543,40.226913 
	C10.388304,40.877033 10.633845,41.520927 10.715903,42.623013 
	C10.649011,52.718262 10.602039,62.358379 10.642795,71.998123 
	C10.671619,78.816170 12.780843,80.930115 19.593676,80.951797 
	C32.724010,80.993591 45.854679,80.994415 58.985004,80.950890 
	C65.714447,80.928589 67.967552,78.685982 67.978020,71.962204 
	C67.998207,58.998367 67.932220,46.034397 68.155075,32.891609 
	C69.295937,32.207748 70.183693,31.702757 71.100418,31.631294 
	C71.235786,35.398849 71.342201,38.732880 71.593674,42.423237 
	C72.185707,42.966118 72.632668,43.152668 73.048065,43.767166 
	C73.047119,47.240864 73.077744,50.286613 72.652542,53.386307 
	C72.026199,60.971050 71.472466,68.521309 71.853340,76.024117 
	C72.032921,79.561577 75.417183,80.949181 78.930725,80.950073 
	C101.201622,80.955711 123.472725,81.002518 145.743271,80.912971 
	C150.672379,80.893150 153.104645,78.425873 153.138077,73.472298 
	C153.213150,62.341103 153.064972,51.208397 153.086090,39.615158 
	C153.465347,25.374487 153.079132,24.988834 139.530380,24.968178 
	C120.229065,24.938753 100.927780,24.882946 81.834488,24.555897 
	C85.352478,22.493967 88.662445,20.714546 92.442383,18.956232 
	C109.630775,18.986498 126.355644,19.270279 143.064621,18.877790 
	C150.363602,18.706339 156.116287,20.085499 159.318756,27.253553 
	C159.504654,27.669687 160.422684,27.758738 161.000000,28.000000 
M104.563988,125.950867 
	C104.464958,123.784882 104.365921,121.618904 104.352715,118.462242 
	C104.286850,112.027428 104.220985,105.592606 104.468506,98.421104 
	C104.535721,97.593582 104.649132,96.766846 104.663124,95.938423 
	C104.836838,85.652321 103.174721,83.932266 93.064713,83.928551 
	C81.583099,83.924339 70.101486,83.927078 58.619869,83.927605 
	C45.807053,83.928192 32.994114,83.896599 20.181465,83.943634 
	C12.903703,83.970345 10.890136,85.964798 10.851077,93.029984 
	C10.836384,95.687790 10.970113,98.346413 10.920874,101.921371 
	C10.976599,105.634605 11.032324,109.347847 10.928921,113.974823 
	C10.908912,119.289352 10.862036,124.603951 10.874982,129.918396 
	C10.896138,138.603271 12.768145,140.339386 22.539780,140.072723 
	C46.178883,140.021683 69.817986,139.970642 94.244835,140.052948 
	C102.752632,140.079010 104.387238,138.460007 104.391151,129.978912 
	C104.391685,128.823151 104.339096,127.667374 104.563988,125.950867 
M153.141205,96.194519 
	C153.389603,85.054474 152.247879,83.884224 141.124313,83.882446 
	C134.816437,83.881432 128.508560,83.882248 122.200691,83.882256 
	C108.057808,83.882278 107.350449,84.636597 107.947609,99.885391 
	C107.937202,110.549179 107.864220,121.213432 107.943001,131.876556 
	C107.981949,137.146973 110.350861,139.728287 115.463348,139.806152 
	C125.458473,139.958374 135.458817,139.947128 145.454437,139.812531 
	C150.541992,139.744019 153.088989,137.373001 153.120819,132.574600 
	C153.199234,120.749466 153.041687,108.922775 153.141205,96.194519 
z"/>
<path fill="#000000" opacity="1.000000" stroke="none" 
	d="
M68.863754,18.947327 
	C51.209930,18.966625 33.556068,18.971296 15.902293,19.012238 
	C8.587967,19.029202 3.048014,24.416286 3.036450,31.849148 
	C2.976591,70.321678 3.022441,108.794373 2.995522,147.266983 
	C2.991565,152.921738 5.891231,156.915207 10.002840,160.652313 
	C7.005343,161.000000 4.010687,161.000000 1.012023,161.000000 
	C1.008016,107.767014 1.008016,54.534019 1.008016,1.000000 
	C26.353434,1.000000 51.708057,1.000000 77.872749,1.251958 
	C75.409790,7.318387 72.136772,13.132857 68.863754,18.947327 
z"/>
<path fill="#000000" opacity="1.000000" stroke="none" 
	d="
M161.000000,27.531338 
	C160.422684,27.758738 159.504654,27.669687 159.318756,27.253553 
	C156.116287,20.085499 150.363602,18.706339 143.064621,18.877790 
	C126.355644,19.270279 109.630775,18.986498 92.582123,18.633636 
	C94.939545,16.849375 97.711525,15.543031 100.287437,13.924613 
	C102.251297,12.690745 104.566696,10.842228 102.014839,8.555193 
	C100.900261,7.556286 97.879852,7.402618 96.504128,8.203528 
	C91.228088,11.275110 86.307404,14.950620 81.164490,18.261559 
	C79.743179,19.176584 78.011353,19.609285 76.194191,20.357027 
	C77.290756,13.019258 86.693810,9.261529 82.000000,1.000000 
	C108.224174,1.000000 134.448349,1.000000 161.000000,1.000000 
	C161.000000,9.684815 161.000000,18.373745 161.000000,27.531338 
z"/>
<path fill="#E8D16F" opacity="1.000000" stroke="none" 
	d="
M81.600006,1.000000 
	C86.693810,9.261529 77.290756,13.019258 76.194191,20.357027 
	C78.011353,19.609285 79.743179,19.176584 81.164490,18.261559 
	C86.307404,14.950620 91.228088,11.275110 96.504128,8.203528 
	C97.879852,7.402618 100.900261,7.556286 102.014839,8.555193 
	C104.566696,10.842228 102.251297,12.690745 100.287437,13.924613 
	C97.711525,15.543031 94.939545,16.849375 92.112152,18.612530 
	C88.662445,20.714546 85.352478,22.493967 81.504402,24.618011 
	C77.668015,27.041012 74.369728,29.119390 71.071449,31.197769 
	C70.183693,31.702757 69.295937,32.207748 67.832214,32.978889 
	C64.171776,38.016304 61.087318,42.787563 57.730309,47.801205 
	C54.310570,52.947674 51.163380,57.851761 48.016186,62.755844 
	C47.490185,62.415833 46.964188,62.075817 46.438187,61.735806 
	C47.896328,54.800674 54.523548,49.828701 55.052776,41.315475 
	C51.397621,43.266457 48.726929,44.691975 46.056232,46.117489 
	C45.664692,45.673840 45.273151,45.230186 44.881607,44.786537 
	C46.879948,42.895477 48.878288,41.004417 51.210323,39.018288 
	C53.439281,37.655037 55.334545,36.386852 57.541992,34.999218 
	C60.343151,31.998646 62.832119,29.117521 65.321091,26.236397 
	C66.544815,24.039339 67.768547,21.842279 68.928009,19.296272 
	C72.136772,13.132857 75.409790,7.318387 78.341408,1.251958 
	C79.066673,1.000000 80.133339,1.000000 81.600006,1.000000 
z"/>
<path fill="#000000" opacity="1.000000" stroke="none" 
	d="
M153.494736,161.000000 
	C155.430664,157.673599 157.861313,154.347214 160.645981,151.010406 
	C161.000000,154.240097 161.000000,157.480209 161.000000,161.000000 
	C158.666824,161.000000 156.328156,161.000000 153.494736,161.000000 
z"/>
<path fill="#F9F6F4" opacity="1.000000" stroke="none" 
	d="
M93.457092,139.919617 
	C69.817986,139.970642 46.178883,140.021683 21.882206,139.745621 
	C11.970520,133.058121 9.184303,124.585297 13.118565,113.700470 
	C16.775410,105.152443 23.467443,99.964600 30.960987,95.150360 
	C47.955208,86.760681 64.773674,86.801727 81.958176,94.375031 
	C93.044762,100.268326 101.048927,108.291702 103.896927,121.093292 
	C103.905441,122.877220 103.949982,124.171333 103.798721,125.724548 
	C102.339661,132.171448 97.990570,136.112656 93.457092,139.919617 
M41.589275,116.901070 
	C37.356331,115.850082 32.419758,117.958626 31.567163,121.664124 
	C31.296312,122.841278 32.538887,125.297874 33.627903,125.696495 
	C38.501637,127.480469 43.400425,122.540695 41.589275,116.901070 
M71.589973,119.325974 
	C70.912086,117.563583 70.717163,115.190765 69.442696,114.182411 
	C67.548462,112.683723 64.938026,111.956802 62.519024,111.364586 
	C62.019970,111.242409 60.166771,113.615761 60.400497,114.048103 
	C61.573586,116.218002 62.860649,118.751595 64.838760,119.925880 
	C66.410332,120.858841 69.035965,120.016212 71.589973,119.325974 
M91.893127,120.674644 
	C89.992783,121.886597 88.028763,123.021851 86.308105,124.450264 
	C86.164185,124.569740 87.529381,127.552444 88.415176,127.681351 
	C91.788177,128.172256 93.787704,124.660339 91.893127,120.674644 
M42.796616,102.878326 
	C44.432407,101.850372 46.068199,100.822418 47.703987,99.794464 
	C46.913326,98.912079 46.029655,97.222374 45.349686,97.300713 
	C43.413876,97.523743 41.561081,98.467346 39.675617,99.127365 
	C40.470928,100.330742 41.266239,101.534111 42.796616,102.878326 
M55.910225,133.083160 
	C55.064190,134.070282 54.218155,135.057388 53.372112,136.044495 
	C54.238876,136.679565 55.244106,137.972229 55.946026,137.824432 
	C57.925869,137.407547 59.781155,136.399094 61.685524,135.623779 
	C60.026203,134.752670 58.366879,133.881546 55.910225,133.083160 
z"/>
<path fill="#E93031" opacity="1.000000" stroke="none" 
	d="
M153.007660,40.076305 
	C153.064972,51.208397 153.213150,62.341103 153.138077,73.472298 
	C153.104645,78.425873 150.672379,80.893150 145.743271,80.912971 
	C123.472725,81.002518 101.201622,80.955711 78.930725,80.950073 
	C75.417183,80.949181 72.032921,79.561577 71.853340,76.024117 
	C71.472466,68.521309 72.026199,60.971050 72.646591,53.803154 
	C75.105789,60.794067 78.646339,63.988155 84.372078,64.338303 
	C89.901573,64.676445 95.157455,61.942371 96.606834,56.830421 
	C98.562370,49.933285 99.101646,42.815140 95.841995,35.792038 
	C95.863335,35.599537 95.859291,35.212193 96.178787,34.928040 
	C106.991760,34.451485 117.485229,34.259079 127.905838,34.472607 
	C127.500481,39.659901 126.899185,44.441124 126.896645,49.222660 
	C126.892525,56.963917 131.923370,62.110355 139.076309,62.171852 
	C146.166031,62.232807 151.319183,57.135990 151.748459,49.526192 
	C151.926178,46.375885 151.911606,43.214729 152.240356,40.059448 
	C152.666718,40.065697 152.837204,40.070999 153.007660,40.076305 
M100.889511,53.803772 
	C100.854347,58.431610 100.479034,63.088249 100.867844,67.680191 
	C101.384491,73.781998 106.562569,78.103844 112.709854,78.211266 
	C119.089661,78.322746 124.592499,73.977760 125.080345,67.715179 
	C125.462906,62.804253 124.959465,57.824310 124.823837,52.203922 
	C121.930702,45.982010 118.089149,43.416534 112.151176,43.740829 
	C106.657150,44.040874 103.123726,46.974411 100.889511,53.803772 
z"/>
<path fill="#E83330" opacity="1.000000" stroke="none" 
	d="
M57.229805,35.118668 
	C55.334545,36.386852 53.439281,37.655037 50.918789,38.818298 
	C40.477119,32.953339 31.213512,34.204163 23.819052,42.579365 
	C18.361233,48.761063 15.634260,56.170803 14.763213,64.350708 
	C14.381011,67.939919 15.856823,70.228767 19.088522,71.258690 
	C32.670330,75.587166 46.267563,75.447853 59.781162,70.939178 
	C63.075523,69.840042 64.754585,67.269180 63.732857,63.901279 
	C62.058540,58.382294 59.936230,52.999218 58.002861,47.558823 
	C61.087318,42.787563 64.171776,38.016304 67.579102,33.157764 
	C67.932220,46.034397 67.998207,58.998367 67.978020,71.962204 
	C67.967552,78.685982 65.714447,80.928589 58.985004,80.950890 
	C45.854679,80.994415 32.724010,80.993591 19.593676,80.951797 
	C12.780843,80.930115 10.671619,78.816170 10.642795,71.998123 
	C10.602039,62.358379 10.649011,52.718262 10.921642,42.327110 
	C15.840895,36.017742 22.465157,34.410812 29.024263,34.181747 
	C38.403763,33.854191 47.825886,34.746998 57.229805,35.118668 
z"/>
<path fill="#CA102A" opacity="1.000000" stroke="none" 
	d="
M81.731773,94.113037 
	C64.773674,86.801727 47.955208,86.760681 30.504456,95.091858 
	C23.486443,97.069603 17.261309,99.037132 11.036177,101.004662 
	C10.970113,98.346413 10.836384,95.687790 10.851077,93.029984 
	C10.890136,85.964798 12.903703,83.970345 20.181465,83.943634 
	C32.994114,83.896599 45.807053,83.928192 58.619869,83.927605 
	C70.101486,83.927078 81.583099,83.924339 93.064713,83.928551 
	C103.174721,83.932266 104.836838,85.652321 104.663124,95.938423 
	C104.649132,96.766846 104.535721,97.593582 103.929832,98.693573 
	C96.171364,97.348366 88.951569,95.730698 81.731773,94.113037 
z"/>
<path fill="#EC3230" opacity="1.000000" stroke="none" 
	d="
M152.979004,97.096710 
	C153.041687,108.922775 153.199234,120.749466 153.120819,132.574600 
	C153.088989,137.373001 150.541992,139.744019 145.454437,139.812531 
	C135.458817,139.947128 125.458473,139.958374 115.463348,139.806152 
	C110.350861,139.728287 107.981949,137.146973 107.943001,131.876556 
	C107.864220,121.213432 107.937202,110.549179 108.248886,99.186829 
	C112.211800,94.244858 116.913933,92.768982 122.217346,93.592209 
	C119.943115,96.158493 117.472580,98.197227 115.788658,100.754013 
	C113.914833,103.599144 112.757294,106.916031 111.219368,110.450027 
	C112.010757,114.307877 112.018150,118.347221 113.925964,121.040268 
	C116.959717,125.322670 121.168076,128.806412 125.052765,132.442993 
	C128.831985,135.980850 132.224564,135.939194 136.046982,132.375565 
	C139.452499,129.200607 142.555267,125.698242 145.994934,122.563393 
	C149.246124,119.600327 150.705231,116.216980 149.700073,111.472015 
	C150.517410,107.052948 148.878433,104.046623 146.040558,101.314293 
	C143.423508,98.794571 141.117630,95.951622 139.112579,93.190002 
	C144.026657,94.451553 148.502823,95.774132 152.979004,97.096710 
z"/>
<path fill="#C71029" opacity="1.000000" stroke="none" 
	d="
M153.086090,39.615158 
	C152.837204,40.070999 152.666718,40.065697 152.146149,39.706795 
	C151.149124,37.554424 150.502182,35.755650 149.752380,33.641636 
	C143.205597,25.708872 135.091171,25.568026 129.011703,33.170288 
	C128.540924,33.601627 128.259811,33.834148 127.978699,34.066673 
	C117.485229,34.259079 106.991760,34.451485 95.911270,34.718407 
	C89.872063,29.432671 87.666641,29.034977 80.133484,32.187847 
	C78.198875,33.833576 76.556297,35.397755 74.599434,37.128250 
	C73.771111,38.862202 73.257065,40.429832 72.420029,42.026272 
	C71.880898,42.059025 71.664757,42.062969 71.448608,42.066910 
	C71.342201,38.732880 71.235786,35.398849 71.100418,31.631294 
	C74.369728,29.119390 77.668015,27.041012 81.296387,24.900520 
	C100.927780,24.882946 120.229065,24.938753 139.530380,24.968178 
	C153.079132,24.988834 153.465347,25.374487 153.086090,39.615158 
z"/>
<path fill="#C71029" opacity="1.000000" stroke="none" 
	d="
M57.541992,34.999218 
	C47.825886,34.746998 38.403763,33.854191 29.024263,34.181747 
	C22.465157,34.410812 15.840895,36.017742 10.979062,41.871819 
	C10.633845,41.520927 10.388304,40.877033 10.370543,40.226913 
	C10.012635,27.125389 10.452932,24.423700 24.690414,24.897343 
	C35.832531,25.268007 46.997189,24.925827 58.150948,25.013243 
	C60.272442,25.029869 62.389793,25.574541 64.915070,26.055988 
	C62.832119,29.117521 60.343151,31.998646 57.541992,34.999218 
z"/>
<path fill="#CD0D28" opacity="1.000000" stroke="none" 
	d="
M122.368034,93.293182 
	C116.913933,92.768982 112.211800,94.244858 108.311157,98.718460 
	C107.350449,84.636597 108.057808,83.882278 122.200691,83.882256 
	C128.508560,83.882248 134.816437,83.881432 141.124313,83.882446 
	C152.247879,83.884224 153.389603,85.054474 153.060104,96.645615 
	C148.502823,95.774132 144.026657,94.451553 138.806915,93.046005 
	C131.565750,87.565811 129.751617,87.383537 124.799957,91.564018 
	C124.042557,92.203461 123.181274,92.719872 122.368034,93.293182 
z"/>
<path fill="#353F4A" opacity="1.000000" stroke="none" 
	d="
M72.743019,41.997459 
	C73.257065,40.429832 73.771111,38.862202 74.750206,37.560005 
	C75.896675,41.606197 75.692993,45.885780 77.474403,49.046593 
	C79.925888,53.396355 85.952477,54.007015 90.407120,51.544346 
	C95.323227,48.826550 96.764618,44.178967 94.990372,37.007042 
	C95.362839,36.518192 95.591743,36.251366 95.820648,35.984543 
	C99.101646,42.815140 98.562370,49.933285 96.606834,56.830421 
	C95.157455,61.942371 89.901573,64.676445 84.372078,64.338303 
	C78.646339,63.988155 75.105789,60.794067 73.102402,53.749207 
	C73.077744,50.286613 73.047119,47.240864 72.959435,43.431950 
	C72.849251,42.445004 72.796135,42.221230 72.743019,41.997459 
z"/>
<path fill="#EF3536" opacity="1.000000" stroke="none" 
	d="
M81.958176,94.375031 
	C88.951569,95.730698 96.171364,97.348366 103.773140,99.061913 
	C104.220985,105.592606 104.286850,112.027428 104.250763,119.141739 
	C104.118469,120.093430 104.046516,120.354172 103.932961,120.603477 
	C101.048927,108.291702 93.044762,100.268326 81.958176,94.375031 
z"/>
<path fill="#EE3737" opacity="1.000000" stroke="none" 
	d="
M10.978525,101.463013 
	C17.261309,99.037132 23.486443,97.069603 30.168106,95.160568 
	C23.467443,99.964600 16.775410,105.152443 12.888007,113.588097 
	C12.000229,113.526031 11.544138,113.293556 11.088049,113.061081 
	C11.032324,109.347847 10.976599,105.634605 10.978525,101.463013 
z"/>
<path fill="#E94140" opacity="1.000000" stroke="none" 
	d="
M11.008484,113.517952 
	C11.544138,113.293556 12.000229,113.526031 12.686877,113.870880 
	C9.184303,124.585297 11.970520,133.058121 21.392307,139.670044 
	C12.768145,140.339386 10.896138,138.603271 10.874982,129.918396 
	C10.862036,124.603951 10.908912,119.289352 11.008484,113.517952 
z"/>
<path fill="#EA3F3E" opacity="1.000000" stroke="none" 
	d="
M93.850967,139.986282 
	C97.990570,136.112656 102.339661,132.171448 103.875565,125.893036 
	C104.185883,126.042641 104.240173,126.279037 104.311096,126.511604 
	C104.339096,127.667374 104.391685,128.823151 104.391151,129.978912 
	C104.387238,138.460007 102.752632,140.079010 93.850967,139.986282 
z"/>
<path fill="#CA102A" opacity="1.000000" stroke="none" 
	d="
M104.437538,126.231232 
	C104.240173,126.279037 104.185883,126.042641 104.071381,125.633926 
	C103.949982,124.171333 103.905441,122.877220 103.896927,121.093292 
	C104.046516,120.354172 104.118469,120.093430 104.207855,119.637077 
	C104.365921,121.618904 104.464958,123.784882 104.437538,126.231232 
z"/>
<path fill="#E93031" opacity="1.000000" stroke="none" 
	d="
M72.420029,42.026272 
	C72.796135,42.221230 72.849251,42.445004 72.991005,43.003998 
	C72.632668,43.152668 72.185707,42.966118 71.593674,42.423237 
	C71.664757,42.062969 71.880898,42.059025 72.420029,42.026272 
z"/>
<path fill="#55A71C" opacity="1.000000" stroke="none" 
	d="
M57.730312,47.801205 
	C59.936230,52.999218 62.058540,58.382294 63.732857,63.901279 
	C64.754585,67.269180 63.075523,69.840042 59.781162,70.939178 
	C46.267563,75.447853 32.670330,75.587166 19.088522,71.258690 
	C15.856823,70.228767 14.381011,67.939919 14.763213,64.350708 
	C15.634260,56.170803 18.361233,48.761063 23.819052,42.579365 
	C31.213512,34.204163 40.477119,32.953339 50.585091,38.913368 
	C48.878288,41.004417 46.879948,42.895477 44.881607,44.786537 
	C45.273151,45.230186 45.664692,45.673840 46.056232,46.117489 
	C48.726929,44.691975 51.397621,43.266457 55.052776,41.315475 
	C54.523548,49.828701 47.896328,54.800674 46.438187,61.735806 
	C46.964188,62.075817 47.490185,62.415833 48.016186,62.755844 
	C51.163380,57.851761 54.310570,52.947674 57.730312,47.801205 
z"/>
<path fill="#E3E1D1" opacity="1.000000" stroke="none" 
	d="
M41.883129,117.142960 
	C43.400425,122.540695 38.501637,127.480469 33.627903,125.696495 
	C32.538887,125.297874 31.296312,122.841278 31.567163,121.664124 
	C32.419758,117.958626 37.356331,115.850082 41.883129,117.142960 
z"/>
<path fill="#E3E1D1" opacity="1.000000" stroke="none" 
	d="
M71.391800,119.643944 
	C69.035965,120.016212 66.410332,120.858841 64.838760,119.925880 
	C62.860649,118.751595 61.573586,116.218002 60.400497,114.048103 
	C60.166771,113.615761 62.019970,111.242409 62.519024,111.364586 
	C64.938026,111.956802 67.548462,112.683723 69.442696,114.182411 
	C70.717163,115.190765 70.912086,117.563583 71.391800,119.643944 
z"/>
<path fill="#E4E3D3" opacity="1.000000" stroke="none" 
	d="
M92.177208,120.863495 
	C93.787704,124.660339 91.788177,128.172256 88.415176,127.681351 
	C87.529381,127.552444 86.164185,124.569740 86.308105,124.450264 
	C88.028763,123.021851 89.992783,121.886597 92.177208,120.863495 
z"/>
<path fill="#E4E2D3" opacity="1.000000" stroke="none" 
	d="
M42.429085,102.807907 
	C41.266239,101.534111 40.470928,100.330742 39.675617,99.127365 
	C41.561081,98.467346 43.413876,97.523743 45.349686,97.300713 
	C46.029655,97.222374 46.913326,98.912079 47.703987,99.794464 
	C46.068199,100.822418 44.432407,101.850372 42.429085,102.807907 
z"/>
<path fill="#E3E1D1" opacity="1.000000" stroke="none" 
	d="
M56.308891,133.046783 
	C58.366879,133.881546 60.026203,134.752670 61.685528,135.623779 
	C59.781155,136.399094 57.925869,137.407547 55.946026,137.824432 
	C55.244106,137.972229 54.238876,136.679565 53.372116,136.044495 
	C54.218155,135.057388 55.064190,134.070282 56.308891,133.046783 
z"/>
<path fill="#363F4A" opacity="1.000000" stroke="none" 
	d="
M127.905830,34.472607 
	C128.259811,33.834148 128.540924,33.601627 129.188309,33.352127 
	C129.742767,33.615250 129.930939,33.895348 130.010025,34.563194 
	C126.703972,44.139095 132.412247,52.068817 141.044601,50.431324 
	C147.935944,49.124088 150.900879,43.349052 149.036713,34.928074 
	C149.403931,34.462940 149.629578,34.209911 149.855225,33.956879 
	C150.502182,35.755650 151.149124,37.554424 151.890274,39.705856 
	C151.911606,43.214729 151.926178,46.375885 151.748459,49.526192 
	C151.319183,57.135990 146.166031,62.232807 139.076309,62.171852 
	C131.923370,62.110355 126.892525,56.963917 126.896645,49.222660 
	C126.899185,44.441124 127.500481,39.659901 127.905830,34.472607 
z"/>
<path fill="#313E49" opacity="1.000000" stroke="none" 
	d="
M124.849655,52.875031 
	C124.959465,57.824310 125.462906,62.804253 125.080345,67.715179 
	C124.592499,73.977760 119.089661,78.322746 112.709854,78.211266 
	C106.562569,78.103844 101.384491,73.781998 100.867844,67.680191 
	C100.479034,63.088249 100.854347,58.431610 101.406494,53.413822 
	C102.186356,53.054203 102.449219,53.084538 102.674637,53.513687 
	C102.149124,61.429077 106.416229,66.750763 112.938515,66.759743 
	C119.878761,66.769295 124.069527,61.172142 123.504402,53.008308 
	C124.133385,52.962910 124.491516,52.918972 124.849655,52.875031 
z"/>
<path fill="#59545D" opacity="1.000000" stroke="none" 
	d="
M102.712090,53.114868 
	C102.449219,53.084538 102.186356,53.054203 101.533279,52.951942 
	C103.123726,46.974411 106.657150,44.040874 112.151176,43.740829 
	C118.089149,43.416534 121.930702,45.982010 124.836746,52.539474 
	C124.491516,52.918972 124.133385,52.962910 123.319458,52.709068 
	C120.877762,48.138920 117.649925,45.647831 112.825447,45.695805 
	C107.729233,45.746475 104.692589,48.744850 102.712090,53.114868 
z"/>
<path fill="#544E59" opacity="1.000000" stroke="none" 
	d="
M95.841995,35.792038 
	C95.591743,36.251366 95.362839,36.518192 94.714996,36.798424 
	C90.954903,31.463295 85.776848,31.529411 80.425514,32.106300 
	C87.666641,29.034977 89.872063,29.432671 95.591766,35.002560 
	C95.859291,35.212193 95.863335,35.599537 95.841995,35.792038 
z"/>
<path fill="#F99521" opacity="1.000000" stroke="none" 
	d="
M122.217346,93.592209 
	C123.181274,92.719872 124.042557,92.203461 124.799957,91.564018 
	C129.751617,87.383537 131.565750,87.565811 138.369019,93.107040 
	C141.117630,95.951622 143.423508,98.794571 146.040558,101.314293 
	C148.878433,104.046623 150.517410,107.052948 149.403976,111.580978 
	C144.628326,116.301918 140.181519,120.486198 135.789902,124.727623 
	C132.690460,127.721077 129.116074,128.232422 126.060532,125.366615 
	C120.889534,120.516739 116.187263,115.167084 111.287933,110.027542 
	C112.757294,106.916031 113.914833,103.599144 115.788658,100.754013 
	C117.472580,98.197227 119.943115,96.158493 122.217346,93.592209 
z"/>
<path fill="#E67718" opacity="1.000000" stroke="none" 
	d="
M111.219368,110.450027 
	C116.187263,115.167084 120.889534,120.516739 126.060532,125.366615 
	C129.116074,128.232422 132.690460,127.721077 135.789902,124.727623 
	C140.181519,120.486198 144.628326,116.301918 149.347656,111.984253 
	C150.705231,116.216980 149.246124,119.600327 145.994934,122.563393 
	C142.555267,125.698242 139.452499,129.200607 136.046982,132.375565 
	C132.224564,135.939194 128.831985,135.980850 125.052765,132.442993 
	C121.168076,128.806412 116.959717,125.322670 113.925964,121.040268 
	C112.018150,118.347221 112.010757,114.307877 111.219368,110.450027 
z"/>
<path fill="#E2E6E0" opacity="1.000000" stroke="none" 
	d="
M80.133484,32.187847 
	C85.776848,31.529411 90.954903,31.463295 94.571442,37.020451 
	C96.764618,44.178967 95.323227,48.826550 90.407120,51.544346 
	C85.952477,54.007015 79.925888,53.396355 77.474403,49.046593 
	C75.692993,45.885780 75.896675,41.606197 75.064491,37.393688 
	C76.556297,35.397755 78.198875,33.833576 80.133484,32.187847 
M89.677139,48.757484 
	C90.759102,46.486374 91.841064,44.215267 92.948502,41.202034 
	C91.531158,39.823837 90.113815,38.445644 88.256493,36.619514 
	C86.329399,33.551033 83.947601,34.035904 80.712120,36.034119 
	C77.124657,38.965878 76.310028,42.637901 78.794487,46.450649 
	C81.243126,50.208431 84.851952,51.202282 89.677139,48.757484 
z"/>
<path fill="#524C58" opacity="1.000000" stroke="none" 
	d="
M149.752380,33.641640 
	C149.629578,34.209911 149.403931,34.462940 148.764252,34.719921 
	C142.624496,27.880701 137.025085,27.712259 130.119125,34.175442 
	C129.930939,33.895348 129.742767,33.615250 129.377975,33.153313 
	C135.091171,25.568026 143.205597,25.708872 149.752380,33.641640 
z"/>
<path fill="#E9E7E4" opacity="1.000000" stroke="none" 
	d="
M130.010025,34.563194 
	C137.025085,27.712259 142.624496,27.880701 148.622681,34.932026 
	C150.900879,43.349052 147.935944,49.124088 141.044601,50.431324 
	C132.412247,52.068817 126.703972,44.139095 130.010025,34.563194 
M145.613205,36.217052 
	C141.812958,31.684881 137.885300,30.804789 134.266190,33.674450 
	C130.638687,36.550758 130.426804,40.930416 134.116425,45.864151 
	C137.518616,48.783257 141.115189,48.735031 144.331421,45.877098 
	C147.069504,43.444069 148.407242,40.352966 145.613205,36.217052 
z"/>
<path fill="#E8E9E5" opacity="1.000000" stroke="none" 
	d="
M102.674637,53.513687 
	C104.692589,48.744850 107.729233,45.746475 112.825447,45.695805 
	C117.649925,45.647831 120.877762,48.138920 123.048615,52.710529 
	C124.069527,61.172142 119.878761,66.769295 112.938515,66.759743 
	C106.416229,66.750763 102.149124,61.429077 102.674637,53.513687 
M108.226082,50.112610 
	C103.707870,54.872162 103.935860,58.547714 109.649071,63.160595 
	C115.642906,64.743385 120.035034,62.372063 120.806107,57.153755 
	C121.223839,54.326733 120.408470,52.605316 116.910995,52.342876 
	C114.525253,50.616669 113.025017,45.964596 108.226082,50.112610 
z"/>
<path fill="#5BAB25" opacity="1.000000" stroke="none" 
	d="
M88.696472,37.067451 
	C90.113815,38.445644 91.531158,39.823837 92.557060,41.575455 
	C87.265930,42.861145 86.475922,44.627319 89.019844,48.981667 
	C84.851952,51.202282 81.243126,50.208431 78.794487,46.450649 
	C76.310028,42.637901 77.124657,38.965878 80.985916,36.289223 
	C82.257866,37.976093 83.256027,39.407852 84.254189,40.839611 
	C85.734947,39.582226 87.215714,38.324841 88.696472,37.067451 
z"/>
<path fill="#D48219" opacity="1.000000" stroke="none" 
	d="
M88.476486,36.843483 
	C87.215714,38.324841 85.734947,39.582226 84.254189,40.839611 
	C83.256027,39.407852 82.257866,37.976093 81.334534,36.143822 
	C83.947601,34.035904 86.329399,33.551033 88.476486,36.843483 
z"/>
<path fill="#8ADD54" opacity="1.000000" stroke="none" 
	d="
M89.348495,48.869576 
	C86.475922,44.627319 87.265930,42.861145 92.544327,41.946518 
	C91.841064,44.215267 90.759102,46.486374 89.348495,48.869576 
z"/>
<path fill="#FA947C" opacity="1.000000" stroke="none" 
	d="
M133.704865,45.276535 
	C130.426804,40.930416 130.638687,36.550758 134.266190,33.674450 
	C137.885300,30.804789 141.812958,31.684881 145.360687,36.598255 
	C143.554474,37.255020 142.000763,37.530582 140.235413,38.017906 
	C138.994507,39.796803 137.965271,41.363941 136.641739,43.086025 
	C135.466583,43.919487 134.585724,44.598011 133.704865,45.276535 
z"/>
<path fill="#3B4A4F" opacity="1.000000" stroke="none" 
	d="
M133.910645,45.570343 
	C134.585724,44.598011 135.466583,43.919487 136.845581,43.366329 
	C138.611343,43.652058 139.878967,43.812424 141.146576,43.972790 
	C140.913406,41.917244 140.680237,39.861694 140.447067,37.806145 
	C142.000763,37.530582 143.554474,37.255020 145.438034,36.916100 
	C148.407242,40.352966 147.069504,43.444069 144.331421,45.877098 
	C141.115189,48.735031 137.518616,48.783257 133.910645,45.570343 
z"/>
<path fill="#F68476" opacity="1.000000" stroke="none" 
	d="
M117.171211,52.971405 
	C120.408470,52.605316 121.223839,54.326733 120.806107,57.153755 
	C120.035034,62.372063 115.642906,64.743385 109.459946,62.645226 
	C110.872375,59.795238 112.473938,57.460617 114.334839,54.945522 
	C115.453178,54.167168 116.312195,53.569286 117.171211,52.971405 
z"/>
<path fill="#3E4850" opacity="1.000000" stroke="none" 
	d="
M114.075508,55.125999 
	C112.473938,57.460617 110.872375,59.795238 109.139137,62.419903 
	C103.935860,58.547714 103.707870,54.872162 108.643692,50.392353 
	C108.902695,54.216953 111.496300,54.663372 114.075508,55.125999 
z"/>
<path fill="#EA7C12" opacity="1.000000" stroke="none" 
	d="
M114.334839,54.945526 
	C111.496300,54.663372 108.902695,54.216953 108.989914,50.298031 
	C113.025017,45.964596 114.525253,50.616669 117.041107,52.657143 
	C116.312195,53.569286 115.453178,54.167168 114.334839,54.945526 
z"/>
<path fill="#549D21" opacity="1.000000" stroke="none" 
	d="
M140.235413,38.017906 
	C140.680237,39.861694 140.913406,41.917244 141.146576,43.972790 
	C139.878967,43.812424 138.611343,43.652058 137.139893,43.211388 
	C137.965271,41.363941 138.994507,39.796803 140.235413,38.017906 
z"/>
</svg>